<?xml version="1.0" standalone="no"?><!DOCTYPE svg PUBLIC "-//W3C//DTD SVG 1.1//EN" "http://www.w3.org/Graphics/SVG/1.1/DTD/svg11.dtd"><svg t="1609163421667" class="icon" viewBox="0 0 1045 1024" version="1.1" xmlns="http://www.w3.org/2000/svg" p-id="2239" xmlns:xlink="http://www.w3.org/1999/xlink" width="204.1015625" height="200"><defs><style type="text/css"></style></defs><path d="M553.539623 647.969811h-61.705661A21.011321 21.011321 0 0 1 470.943396 628.045283l-2.535849-51.2v-0.966038a20.890566 20.890566 0 0 1 21.011321-21.01132H555.471698a21.011321 21.011321 0 0 1 21.011321 21.01132 2.29434 2.29434 0 0 1 0 0.966038L574.430189 628.045283a21.011321 21.011321 0 0 1-20.890566 20.528302zM522.626415 957.584906a10.988679 10.988679 0 0 1-8.815094-4.34717l-36.226415-47.456604a10.626415 10.626415 0 0 1-2.173585-7.366038L480.362264 676.34717a20.769811 20.769811 0 0 1 21.011321-20.045283H543.396226A20.769811 20.769811 0 0 1 564.890566 676.34717l4.950943 222.671698A11.350943 11.350943 0 0 1 567.54717 905.781132l-36.226415 47.456604a11.230189 11.230189 0 0 1-8.815095 4.34717z" fill="#50B3EA" p-id="2240"></path><path d="M522.74717 522.867925a261.433962 261.433962 0 1 1 261.433962-261.433963 261.796226 261.796226 0 0 1-261.433962 261.433963z m0-469.373585a208.060377 208.060377 0 1 0 208.060377 207.939622A208.301887 208.301887 0 0 0 522.74717 53.49434z" fill="#444444" p-id="2241"></path><path d="M1018.686792 1024a26.686792 26.686792 0 0 1-26.686792-26.686792 469.373585 469.373585 0 1 0-938.626415 0 26.686792 26.686792 0 1 1-53.373585 0 522.626415 522.626415 0 0 1 1045.25283 0 26.566038 26.566038 0 0 1-26.566038 26.686792z" fill="#444444" p-id="2242"></path></svg>