<?xml version="1.0" standalone="no"?><!DOCTYPE svg PUBLIC "-//W3C//DTD SVG 1.1//EN" "http://www.w3.org/Graphics/SVG/1.1/DTD/svg11.dtd"><svg t="1609132116475" class="icon" viewBox="0 0 1024 1024" version="1.1" xmlns="http://www.w3.org/2000/svg" p-id="24770" xmlns:xlink="http://www.w3.org/1999/xlink" width="30" height="30"><defs><style type="text/css"></style></defs><path d="M300.032 197.12c-1.024-32.768-5.12-65.024-12.8-97.28-4.096-17.92-32.256-10.24-27.648 7.68 7.168 29.696 10.752 59.392 11.776 89.6 0 18.432 29.184 18.944 28.672 0zM265.216 278.016c-8.192-32.768-18.432-65.024-30.72-96.256-6.656-16.896-34.304-9.728-27.648 7.68 12.288 31.744 22.528 63.488 30.72 96.256 4.096 17.92 32.256 10.24 27.648-7.68zM191.488 350.208c16.896 15.36 28.672 33.792 34.816 55.808 4.608 17.92 32.768 10.24 27.648-7.68-7.168-26.624-21.504-50.176-41.984-68.608-14.336-11.776-34.304 8.192-20.48 20.48zM196.096 518.144c25.6 16.896 44.032 41.472 52.736 71.168 5.12 17.92 32.768 10.24 27.648-7.68-10.752-36.864-33.792-67.584-65.536-88.576-15.872-9.728-30.208 14.848-14.848 25.088z" fill="#73BA2D" p-id="24771"></path><path d="M902.656 399.36c-5.12-100.352 5.12-226.304-57.344-312.32-43.52-59.904-116.736-72.704-178.688-31.232-15.36 10.24-1.024 35.328 14.336 25.088 153.088-102.912 185.856 150.016 189.44 244.736 4.096 96.256 40.96 260.608-75.776 303.616-58.88 22.016-119.296 8.704-153.6 72.192-18.432 34.816-26.112 79.36-30.208 123.392-19.456 0-38.912 0.512-58.368 0.512 0.512-23.552 2.048-47.104 5.632-69.632 13.824-86.528 80.896-97.792 133.12-154.112 63.488-68.096 60.416-161.792 43.008-247.296-19.968-97.28-45.568-199.168-113.664-275.456-53.248-59.904-144.384-74.752-201.216-14.336-1.024 1.024-1.536 2.56-2.56 3.584-1.024 0.512-2.048 1.024-3.072 2.048-49.664 51.712-78.336 104.448-95.744 174.08-18.944 77.824-42.496 166.912-25.088 247.296 14.848 68.608 66.048 109.056 119.808 148.48 50.688 36.864 63.488 111.104 66.048 185.856H419.84c-3.584-44.032-11.264-89.088-30.208-123.904-34.304-63.488-94.208-50.688-153.6-72.192-116.736-42.496-79.872-208.384-75.776-303.616 2.048-47.104 3.072-96.256 15.872-141.824 21.504-78.848 87.04-160.768 173.568-102.4 15.36 10.24 29.696-14.336 14.336-25.088-61.44-41.472-135.168-29.184-178.688 31.232C122.88 174.592 133.12 300.032 128 400.384c-4.096 80.384-15.872 184.832 60.928 239.104 37.888 26.624 83.456 17.92 123.392 35.328 56.832 24.064 72.704 89.088 78.848 151.552h-11.264c-18.432 0-18.432 28.672 0 28.672h13.312c1.024 20.48 1.536 39.424 2.048 56.32 1.024 18.432 29.696 18.432 28.672 0-1.024-17.408-1.536-36.352-2.56-55.808h57.344c0 44.544-2.048 87.552-0.512 121.856 0 5.632 4.096 12.8 10.752 13.824 27.136 4.096 22.016 4.608 49.152 2.048 7.68-0.512 14.336-6.144 14.336-14.336 1.024-39.936-1.024-81.92-1.024-123.392 18.944 0 37.888 0 56.832-0.512-1.024 19.456-2.048 38.912-2.56 56.32-1.024 18.432 27.648 18.432 28.672 0 1.024-16.896 1.024-36.352 2.048-56.832h11.264c18.432 0 18.432-29.184 0-28.672h-9.216c5.632-62.464 22.016-127.488 78.336-151.04 40.96-17.408 85.504-7.68 123.392-35.328 77.824-56.32 66.56-159.232 62.464-240.128z m-403.456 353.28c-2.56-55.296-8.704-90.624-53.248-125.952-39.424-31.232-84.48-54.784-109.056-100.864-29.184-55.296-19.456-128-8.704-186.88 16.896-94.72 38.912-177.152 107.52-248.32 1.024-1.024 1.536-2.56 2.56-3.584 1.024-0.512 2.048-1.024 3.072-2.048 110.592-116.736 218.112 87.04 241.152 172.544 24.576 90.112 62.464 203.776 13.824 291.84-35.84 64.512-125.44 78.848-157.696 141.312-9.728 19.456-7.168 44.544-7.68 65.536l-1.536 70.144h-26.112c-2.048-25.088-3.072-49.664-4.096-73.728z m8.192 197.12c-6.144-3.072-2.56-58.88-2.56-65.536-0.512-9.728-1.024-19.968-1.024-29.696h24.576c-0.512 17.92-1.024 35.84-1.024 53.76-1.024 12.8 7.68 56.32-19.968 41.472z" fill="#73BA2D" p-id="24772"></path><path d="M797.696 181.248c-12.288 31.744-22.528 63.488-30.72 96.256-4.608 17.92 23.552 25.6 27.648 7.68 8.192-32.768 18.432-65.024 30.72-96.256 6.656-16.896-20.992-24.576-27.648-7.68zM778.24 398.336c-4.608 17.92 23.04 25.6 27.648 7.68 6.144-22.016 17.408-40.96 34.816-55.808 13.824-12.288-6.656-32.768-20.48-20.48-20.48 18.432-34.816 41.984-41.984 68.608zM783.36 589.312c8.704-29.696 26.624-54.272 52.736-71.168 15.36-10.24 1.024-34.816-14.336-25.088-32.256 20.992-54.784 51.712-65.536 88.576-5.632 17.92 22.016 25.6 27.136 7.68zM532.48 636.416v-18.944c40.448-10.752 80.896-18.432 111.616-49.152 29.696-29.696 48.64-67.584 46.592-110.08-1.024-18.432-29.696-18.432-28.672 0 2.048 38.912-17.92 74.24-47.616 98.304-22.016 17.92-52.736 24.576-80.896 31.232 0.512-29.184 0.512-58.88 1.024-88.064 3.072-3.584 4.608-8.192 4.096-12.8 51.712-56.32 130.56-123.904 114.688-205.312-3.584-17.92-31.232-10.24-27.648 7.68 8.704 45.568-21.504 78.336-49.152 110.08l-41.472 47.616c0.512-39.424 0.512-79.36 0.512-118.784 0-16.896 0.512-34.304 1.024-51.712 33.28-34.816 52.224-78.336 55.296-126.464 1.024-18.432-27.648-18.432-28.672 0-2.048 28.672-10.752 54.784-25.088 77.824 1.024-53.248 0-106.496-14.848-155.136-5.632-17.408-33.28-10.24-27.648 7.68 14.848 47.616 16.384 101.888 14.848 155.648-26.624-32.768-46.08-69.632-57.856-111.104-5.12-17.92-32.768-10.24-27.648 7.68 14.848 52.736 41.472 100.352 79.36 140.288 1.536 1.536 3.072 2.56 4.608 3.072-1.024 27.648-2.56 54.272-2.56 79.872 0 34.816-0.512 69.12-0.512 103.936-65.536-52.736-84.992-138.752-98.304-220.16-3.072-18.432-30.72-10.752-27.648 7.68 15.36 95.232 41.984 193.024 125.44 247.808-0.512 29.696-0.512 59.392-1.024 89.088-69.632-29.184-120.832-89.088-139.264-162.816-4.608-17.92-32.256-10.24-27.648 7.68 21.504 86.528 83.968 154.624 166.912 185.856v20.48c-0.512 19.456 28.16 19.456 28.16 1.024z" fill="#73BA2D" p-id="24773"></path></svg>