<?xml version="1.0" standalone="no"?><!DOCTYPE svg PUBLIC "-//W3C//DTD SVG 1.1//EN" "http://www.w3.org/Graphics/SVG/1.1/DTD/svg11.dtd"><svg t="1609132095815" class="icon" viewBox="0 0 1024 1024" version="1.1" xmlns="http://www.w3.org/2000/svg" p-id="24560" xmlns:xlink="http://www.w3.org/1999/xlink" width="30" height="30"><defs><style type="text/css"></style></defs><path d="M143.1 898.7c-2.9 0-5.8-1-8.7-1.9-9.7-4.9-12.6-16.5-7.8-26.2 1.1-1.2 43.7-85.6 6.8-163.3-66.2-136.3-37-302.6 74.8-414.4 70-70 162.4-108.9 261.5-108.9 99.2 0 151.5 7.9 221.5 77.9l27.1 26.9c70 70 118.9 168.4 118.9 267.5 0 98.2-38.9 191.5-108.9 261.5-71 69-165.3 107-260.6 107-52.5 0-104-11.7-152.6-35-77.8-37.9-162.4 5.8-163.3 6.8-9.7 4.9-21.4 1-26.3-7.8-4.9-9.7-1.9-21.4 7.8-26.3" fill="#EEEEEE" p-id="24561"></path><path d="M800.3 300.8c2.6-10.4 13.3-16.7 23.6-14.1l31.8 8.1c48 12.2 77.9 60.9 65.8 108.9-12.2 48.1-60.7 77-108.8 64.7l-11.6-3c-11.2-2.8-18-14.3-14.2-25.3 3.3-9.3-22.1-44.8 13.4-139.3z" fill="#7EB35E" p-id="24562"></path><path d="M879.2 302.7c5.6 15.9 6.8 33.5 2.4 51.1-12.2 48.1-60.7 77-108.8 64.7l-11.6-3c-1.8-0.5-3.5-1.1-5-2-1.5 9.9 4.9 19.4 15 22l11.6 3c70.6 18 98.1-22.4 108.8-64.7 6.4-25.4 1.1-50.9-12.4-71.1z" fill="#71A350" p-id="24563"></path><path d="M800.3 300.8c2.6-10.4 13.3-16.7 23.6-14.1l31.8 8.1c48 12.2 77.9 60.9 65.8 108.9-12.2 48.1-60.7 77-108.8 64.7l-11.6-3c-11.2-2.8-18-14.3-14.2-25.3 3.2-9.5 13.3-15.1 23.2-12.6l11.4 2.9c27.1 6.9 55.2-8.9 62.3-35.9 7.2-27.4-9-54.8-36.4-61.8l-33-8.4c-10.4-2.5-16.7-13.2-14.1-23.5z" fill="#333333" p-id="24564"></path><path d="M763.5 377.1c-6.8 0-13.6-3.9-17.5-10.7-4.9-9.7-1-21.4 8.7-26.2 1-1-72-71-73.9-67.1-6.8 8.7-18.5 10.7-27.2 3.9-8.7-6.8-10.7-18.5-3.9-27.2 2.9-3.9 6.8-8.8 11.7-13.6l56.4-56.4c16.5-16.5 38.9-26.3 63.2-26.3 24.3 0 46.7 9.7 63.2 26.3 35 35 35 91.4 0 126.4l-56.4 56.4c-3.9 3.9-8.7 8.7-15.6 12.6-2.9 0.9-5.8 1.9-8.7 1.9z m0 0" fill="#7EB35E" p-id="24565"></path><path d="M587.6 232.8c-10.1-2.8-19.4-8.7-19.4-19.4v-32.9c0-49.5 39.8-90.6 89.3-90.6 49.6-0.1 89.6 39.8 89.6 89.5v12c0 11.5-10.6 11.2-21 20-7.7 6.4-22 48.1-138.5 21.4z" fill="#7EB35E" p-id="24566"></path><path d="M708.4 115.7c-16.9 0-33.9 4.8-48.9 14.8a89.262 89.262 0 0 0-24.7 124.2l-17.2-18.4c-40.6-60.6-32.4-87.7 4-112 21.8-14.5 63.2-14.5 86.8-8.6z" fill="#97C679" p-id="24567"></path><path d="M332.8 856.4c121.5 59.3 270.3 32.1 369.5-67.1 62.2-62.2 97.2-145.8 97.2-233.4 0-88.5-34-167.1-97.2-229.3-2.9-2.9-4.7-6.3-5.5-9.9-58.4-50.6-108-56.8-194.2-56.8-95.7 0-184.9 37.5-252.4 105.1-66.5 66.5-102.7 153-105.8 240.3 4.8 29.1 13.7 57.7 27 84.9 18.8 38.8 21.7 77.9 18.3 111 2.7 14.5 3.2 28.6 2.4 41.9 37.7-8.6 89.5-11.5 140.7 13.3z" fill="#E2E2E2" p-id="24568"></path><path d="M754.4 360.6c2.9 18.5 12.8 68.3 13.8 87.6 6.5 127.8 18.6 177.8-68.7 296.3-58.7 79.7-165.3 121-260.6 121-52.5 0-104-11.7-152.6-35-48.2-23.5-99-15.6-130.9-6-4.1 15.6-9 27.4-11.7 33.5-5.8 5.6-7 14.6-3.2 22.3 4.7 8.4 16 12.2 25.3 7.5 0.9-0.9 82.6-43.2 157.6-6.6 46.9 22.5 96.7 33.8 147.3 33.8 92 0 183-36.6 251.5-103.2 67.6-67.6 114.6-158.1 105.1-252.4-17.1-168.8-58-160.6-72.9-198.8z" fill="#CCCCCC" p-id="24569"></path><path d="M144.1 899.2c-2.9 0-5.8-1-8.7-1.9-9.7-4.9-12.6-16.5-7.8-26.2 1.1-1.2 43.7-85.6 6.8-163.3-66.1-136.1-36.9-302.4 74.9-414.2 70-70 162.4-108.9 261.5-108.9 99.2 0 151.5 7.9 221.5 77.9 7.5 7.5 7.8 18.6 0.8 26.4-7.5 8.3-20.5 8.3-28.4 0.4-62.2-62-105.6-65.8-192.9-65.8-87.5 0-171.1 34-233.3 97.2-99.2 99.2-126.4 247.9-67.1 369.5 46.6 96.2-4.8 194.3-6.8 198.3-6.9 6.7-13.7 10.6-20.5 10.6z m324.8 26.2c-52.5 0-104-11.7-152.6-35-77.8-37.9-162.4 5.8-163.3 6.8-9.7 4.9-21.4 1-26.3-7.8-4.9-9.7-1.9-21.4 7.8-26.3 3.9-1.9 102.1-53.5 198.3-6.8 121.5 59.3 270.3 32.1 369.5-67.1 62.2-62.2 97.2-145.8 97.2-233.4 0-88.5-34-167.1-97.2-229.3-7.8-7.8-7.8-19.4 0-27.2 7.8-7.8 19.4-7.8 27.2 0 70 70 108.9 158.4 108.9 257.5 0 98.2-38.9 191.5-108.9 261.5-71 69.2-165.3 107.1-260.6 107.1z" fill="#333333" p-id="24570"></path><path d="M763.5 377.1c-6.8 0-13.6-3.9-17.5-10.7-4.9-9.7-1-21.4 8.7-26.2 1-1 3.9-3.9 5.8-4.8l56.4-56.4c19.4-19.4 19.4-51.5 0-71.9-9.7-9.7-22.4-14.6-36-14.6s-26.3 4.9-36 14.6l-56.4 56.4c-2.9 2.9-5.8 5.8-7.8 9.7-6.8 8.7-18.5 10.7-27.2 3.9-8.7-6.8-10.7-18.5-3.9-27.2 2.9-3.9 6.8-8.8 11.7-13.6l56.4-56.4c16.5-16.5 38.9-26.3 63.2-26.3 24.3 0 46.7 9.7 63.2 26.3 35 35 35 91.4 0 126.4l-56.4 56.4c-3.9 3.9-8.7 8.7-15.6 12.6-2.8 0.8-5.7 1.8-8.6 1.8z m0 0" fill="#333333" p-id="24571"></path><path d="M587.6 232.8c-10.7 0-19.4-8.7-19.4-19.4v-32.9c0-49.5 39.8-90.6 89.3-90.6 49.6-0.1 89.6 39.8 89.6 89.5v12c0 11.5-9.5 20.9-21 20-10-0.8-17.9-9.2-17.9-19.4v-11.7c0-27.9-22.3-51.3-50.2-51.5-28.4-0.2-50.9 22.2-50.9 50.6v34c0 10.6-8.8 19.4-19.5 19.4zM198.1 610.8c-1.7 0-3.4-1.1-4.6-2.3-19.6-29.3-43.7-40.3-55.2-46l-2.3-1.2c-2.9-1.1-4-4.6-2.9-7.5 1.2-2.9 4.6-4 7.5-2.9l2.3 1.2c12.7 5.8 38.6 17.8 59.9 50.1 1.7 2.9 1.2 6.3-1.7 8.1-0.7-0.1-1.8 0.5-3 0.5zM225.4 722.2c-1.6 0-3.2-1.1-4.3-2.2-19.5-29.3-48.8-43.9-74.2-54.2-2.7-1.1-4.3-4.3-3.3-7 1.1-2.7 4.3-4.3 7-3.3 27.6 10.8 58.5 26.5 79.7 58.5 1.6 2.7 1.1 5.9-1.6 7.6-1.2 0-2.2 0.6-3.3 0.6zM325.3 878.5c-2.4 0-4.4-1.9-4.9-4.4-3.4-23.3-9.7-53-31.1-76.8-1.9-1.9-1.5-4.9 0.5-6.8 1.9-1.9 4.9-1.5 6.8 0.5 23.3 25.8 30.6 57.4 34 81.7 0.5 2.4-1.5 5.3-4.4 5.3-0.5 0.5-0.9 0.5-0.9 0.5z" fill="#333333" p-id="24572"></path></svg>