<?xml version="1.0" standalone="no"?><!DOCTYPE svg PUBLIC "-//W3C//DTD SVG 1.1//EN" "http://www.w3.org/Graphics/SVG/1.1/DTD/svg11.dtd"><svg t="1609129006223" class="icon" viewBox="0 0 1024 1024" version="1.1" xmlns="http://www.w3.org/2000/svg" p-id="2981" xmlns:xlink="http://www.w3.org/1999/xlink" width="30" height="30"><defs><style type="text/css"></style></defs><path d="M400.3 82.7c47.1-51.8 183.8-50.1 221.9 0 18 23.6 7.6 183.6 12.8 342.1 5.2 158.5 25.4 356.6 12.2 419.1-25 118.4-228.4 188.5-265.7 86.4-18.4-50.3-3.1-284.4 0-474.2 3.2-195.8-5.1-347.1 18.8-373.4z" fill="#CDA17E" p-id="2982"></path><path d="M537.4 45.7c-36.1 3.7-70 15.9-89.1 37-23.9 26.3-15.6 177.6-18.9 373.3-3.1 189.8-18.4 423.9 0 474.2 9.9 27.1 31.5 42.1 58.3 47.2-47.6 7.6-91-5.2-106.3-47.2-18.4-50.3-3.1-284.4 0-474.2 3.2-195.7-5.1-347 18.8-373.3 27.7-30.3 86-42.3 137.2-37z" fill="#E1C6B1" p-id="2983"></path><path d="M530.6 45.1c38.9 2.9 74.8 15.5 91.6 37.6 18 23.6 7.6 183.6 12.8 342.1 5.2 158.5 25.4 356.6 12.2 419.1-21.5 101.8-175 167.9-241.2 119.5 71.9-3.6 161.2-59.7 177.2-135.5 13.2-62.5-7-260.6-12.2-419.1-5.2-158.5 5.2-318.4-12.8-342.1-6.6-8.6-16.1-15.8-27.6-21.6z" fill="#B7835A" p-id="2984"></path><path d="M398.4 312.3c-0.1 68.8-0.2 101.3-0.9 144-0.5 33-1.4 68.3-2.9 114-0.4 12.3-0.8 24.3-1.3 42.4-6.8 212-6.9 284.4 3.2 312.1 30.2 82.9 212.6 22 235-84.2 7.1-33.6 5.4-88.4-4.8-261.2-1-17.3-1.7-29.8-2.4-42.1-2.5-44.8-4.2-79.7-5.3-112-0.1-2.6-0.1-2.6-0.2-5.1-1.4-45.3-1.6-82.7-1.5-158.2 0.3-117.7-1.6-161.3-7.9-169.6-32.3-42.4-157.3-43-197.3 1.1-10.6 11.6-13.5 63.8-13.7 218.8z m-10-240.4c53.1-58.5 201.7-57.7 246.5 1.1 13.4 17.6 14.8 49.8 14.5 189.1-0.2 75.1 0.1 112.3 1.4 157.1l0.2 5c1 32 2.7 66.7 5.2 111.2 0.7 12.3 1.4 24.7 2.4 42 10.6 178.5 12.2 231.7 4.1 269.7-28.1 133-252.8 208-296.4 88.6-12.4-33.9-12.3-101-5.1-324.1 0.6-18.1 1-30.1 1.3-42.4 1.4-45.6 2.3-80.7 2.8-113.5 0.7-42.4 0.9-74.9 0.9-143.5 0.4-177.3 2.7-218.8 22.2-240.3z" fill="#333333" p-id="2985"></path><path d="M509.4 745c88.9-21 152.9 27.8 137.7 98.9-25 118.4-228.4 188.5-265.7 86.4-21.6-58.5 39.1-164.4 128-185.3z" fill="#FCF8F3" p-id="2986"></path><path d="M588.2 745.5c44.1 13.6 69.1 51 59 98.3-20.8 98.5-165 163.6-234.4 123.9l175.4-222.2z" fill="#F6EDE2" p-id="2987"></path><path d="M513.1 760.5C437.6 778.3 376.9 872 396.5 924.8c30.2 82.9 212.6 22 235-84.2 12.7-59.2-40.9-98.4-118.4-80.1z m-7.3-31.1c98.3-23.2 175.2 33.1 157.1 117.8-28.1 133-252.8 208-296.4 88.6-26.7-72 46.2-184.4 139.3-206.4z" fill="#333333" p-id="2988"></path><path d="M477.4 146.2m-16 0a16 16 0 1 0 32 0 16 16 0 1 0-32 0Z" fill="#6C4935" p-id="2989"></path><path d="M589.4 210.2m-16 0a16 16 0 1 0 32 0 16 16 0 1 0-32 0Z" fill="#6C4935" p-id="2990"></path><path d="M445.4 290.2m-16 0a16 16 0 1 0 32 0 16 16 0 1 0-32 0Z" fill="#6C4935" p-id="2991"></path><path d="M477.4 354.2m-16 0a16 16 0 1 0 32 0 16 16 0 1 0-32 0Z" fill="#6C4935" p-id="2992"></path><path d="M557.4 498.2m-16 0a16 16 0 1 0 32 0 16 16 0 1 0-32 0Z" fill="#6C4935" p-id="2993"></path><path d="M413.4 578.2m-16 0a16 16 0 1 0 32 0 16 16 0 1 0-32 0Z" fill="#6C4935" p-id="2994"></path><path d="M589.4 402.2m-16 0a16 16 0 1 0 32 0 16 16 0 1 0-32 0Z" fill="#6C4935" p-id="2995"></path><path d="M605.4 626.2m-16 0a16 16 0 1 0 32 0 16 16 0 1 0-32 0Z" fill="#6C4935" p-id="2996"></path><path d="M461.4 674.2m-16 0a16 16 0 1 0 32 0 16 16 0 1 0-32 0Z" fill="#6C4935" p-id="2997"></path><path d="M480 153.4c-2.2-0.4-3.6-2.5-3.2-4.7 0.4-2.2 2.5-3.6 4.7-3.2 16.4 3.2 23.3 10.3 32.8 28 0.3 0.6 0.3 0.6 0.6 1.1 6.8 12.6 11.1 18 19.9 21.9 2 0.9 2.9 3.3 2 5.3s-3.3 2.9-5.3 2c-10.8-4.9-16.1-11.4-23.6-25.5-0.3-0.6-0.3-0.6-0.6-1.1-8.5-15.7-13.8-21.2-27.3-23.8zM580.9 217.7c-0.7-2.1 0.5-4.4 2.6-5s4.4 0.5 5 2.6c1.1 3.6 2.4 7.2 4.2 11.8 11.9 31.3 13 39.6 0.2 53.9-1.6 1.8-3.5 3.6-5.7 5.4C572 299 564 316.9 563 340.3c-0.1 2.2-2 3.9-4.2 3.8-2.2-0.1-3.9-2-3.8-4.2 1.1-25.6 10.1-45.6 27.2-59.7 1.8-1.5 3.4-3.1 4.8-4.6 9.9-11 9.1-17.3-1.7-45.7-1.9-4.7-3.2-8.4-4.4-12.2zM554.1 491.3c2-1 4.4-0.2 5.4 1.8s0.2 4.4-1.8 5.4c-4.2 2.1-6 6.6-8 19.1-1.2 7.4-1.5 8.8-2.2 12.2-2.7 11.8-7.1 20.5-15.2 27-17.4 14.2-23.7 31.4-23.7 54.1 0 2.2-1.8 4-4 4s-4-1.8-4-4c0-24.9 7.1-44.4 26.6-60.3 6.5-5.3 10.1-12.4 12.5-22.6 0.7-3.1 1-4.5 2.2-11.7 2.3-15.1 4.7-21.3 12.2-25zM419.9 584.7c-2-1-2.8-3.4-1.9-5.3 1-2 3.4-2.8 5.3-1.9 20.3 9.8 31.3 26.4 31.3 39.6 0 2.2-1.8 4-4 4s-4-1.8-4-4c0-10.1-9.1-23.9-26.7-32.4zM479.2 359.1c2.1-0.8 4.4 0.2 5.2 2.3 0.8 2.1-0.2 4.4-2.3 5.2-35.4 13.7-49.9 25.7-49.9 40.3 0 5.5 0.6 6.3 20.1 32.3 13.5 18 20.3 30.4 21.6 43.6 0.1 1.3 0.2 2.5 0.2 3.7 0 2.2-1.8 4-4 4s-4-1.8-4-4c0-1 0-2-0.1-3-1.1-11.3-7.3-22.7-20-39.5-22.2-29.4-21.7-28.8-21.7-37.1 0-19.2 16.7-33 54.9-47.8zM607.4 628c2.2 0 4 1.8 4 4s-1.8 4-4 4c-25.4 0-47.9 16.4-76.2 54.4-1.3 1.8-3.8 2.1-5.6 0.8-1.8-1.3-2.1-3.8-0.8-5.6 29.6-39.8 54-57.6 82.6-57.6z" fill="#6C4935" p-id="2998"></path></svg>