<?xml version="1.0" standalone="no"?><!DOCTYPE svg PUBLIC "-//W3C//DTD SVG 1.1//EN" "http://www.w3.org/Graphics/SVG/1.1/DTD/svg11.dtd"><svg t="1613396435256" class="icon" viewBox="0 0 1024 1024" version="1.1" xmlns="http://www.w3.org/2000/svg" p-id="1543" data-spm-anchor-id="a313x.7781069.0.i3" width="30" height="30" xmlns:xlink="http://www.w3.org/1999/xlink"><defs><style type="text/css"></style></defs><path d="M511.3 94.1c230.9 0 418.1 187.2 418.1 418.1S742.3 930.4 511.3 930.4 93.2 743.2 93.2 512.2 280.4 94.1 511.3 94.1m0-29.9c-247 0-448 201-448 448s201 448 448 448 448-201 448-448-200.9-448-448-448z" fill="#2c2c2c" p-id="1544" data-spm-anchor-id="a313x.7781069.0.i0" class=""></path><path d="M816.1 184.2c-2 2.2-3.8 4.6-5.1 7.4-4.1 8.7-100.3 217.1-58.1 481.8 2 12.3-0.3 21.7-6.2 25-7.6 4.3-24.7 1.9-43.9-14-47.4-39.4-134.6-67.6-280.3 21.6-11.6 7.1-22.9 3.9-29.6-1.5-4.2-3.4-13.3-13.2-7.2-31.2 33.1-97.6 25.9-222.8-94-281.6-13-6.4-21.3-17.4-21.1-28.2 0.1-10.4 8.8-16.5 16-19.8 10.7-4.9 30.5-9.2 53.5-14.3 85.5-18.8 228.7-50.3 377.2-195.3 4.4-4.3 7.2-9.6 8.4-15.3-17.1-9.3-34.9-17.5-53.2-24.6-135.3 130.6-266.6 159.6-345.3 176.9-27.4 6-49 10.8-65.5 18.3-31.4 14.3-50.4 41.7-50.9 73.3-0.5 34.2 20.4 65.9 54.6 82.6 104.2 51.1 79.3 163 63.8 208.7-12.5 36.8-2.4 74.1 26.4 97.1 15.5 12.4 34.2 18.7 52.9 18.7 15.5 0 31.1-4.3 45.2-12.9 92.8-56.8 163.8-65.8 211-26.6 36.8 30.5 79.6 38.2 111.6 19.9 28.3-16.2 41.6-48.4 35.6-86.3-33.4-209.3 27.9-384.8 47.4-433.4-13.3-16.4-27.8-31.9-43.2-46.3z" fill="#2c2c2c" p-id="1545" data-spm-anchor-id="a313x.7781069.0.i2" class=""></path><path d="M698.9 383.4c-12-2.8-24.1 4.6-27 16.6-1.1 4.5-25.9 111.1-7 201.4 2.2 10.6 11.5 17.8 21.9 17.8 1.5 0 3.1-0.1 4.6-0.5 12.1-2.5 19.9-14.4 17.3-26.5-16.8-80.4 6.5-180.9 6.8-181.9 2.9-12-4.6-24.1-16.6-26.9zM581.5 312.6c-6.2-10.7-19.9-14.3-30.6-8.1-71 41.3-173.8 50.8-174.8 50.9-12.3 1.1-21.4 12-20.3 24.3 1 11.7 10.8 20.4 22.3 20.4 0.7 0 1.3 0 2-0.1 4.6-0.4 113.6-10.4 193.4-56.7 10.6-6.3 14.2-20 8-30.7zM716.9 226.6c-10.3-6.8-24.2-4-31 6.4l-246 372.4c-6.8 10.3-4 24.2 6.4 31 3.8 2.5 8.1 3.7 12.3 3.7 7.3 0 14.4-3.5 18.7-10.1l245.9-372.4c6.8-10.3 4-24.2-6.3-31z" fill="#2c2c2c" p-id="1546" data-spm-anchor-id="a313x.7781069.0.i1" class="selected"></path></svg>